<svg width="1710" height="1257" viewBox="0 0 1710 1257" fill="none" xmlns="http://www.w3.org/2000/svg">
<path d="M855.686 678.248C1070.5 636.444 1267.24 624.109 1411.33 637.361C1483.58 644.006 1540.85 656.937 1580.24 674.668C1620.7 692.889 1635.36 712.791 1637.54 729.219C1639.73 745.648 1630.98 770.104 1597.28 802.759C1564.48 834.537 1513.45 868.545 1446.57 902.265C1313.2 969.513 1123.19 1032.44 908.376 1074.24C693.565 1116.05 496.825 1128.38 352.737 1115.13C280.487 1108.49 223.209 1095.56 183.827 1077.82C143.357 1059.6 128.707 1039.7 126.521 1023.27C124.335 1006.84 133.084 982.388 166.783 949.733C199.578 917.956 250.61 883.947 317.49 850.227C450.867 782.979 640.875 720.051 855.686 678.248Z" stroke="#DEDBD3" stroke-width="60"/>
<path d="M874.17 677.371C1087.37 635.881 1282.65 623.827 1425.67 637.273C1497.38 644.016 1554.22 657.018 1593.31 674.786C1633.43 693.026 1648.05 712.935 1650.25 729.467C1652.45 745.999 1643.73 770.449 1610.37 802.992C1577.87 834.689 1527.27 868.6 1460.92 902.21C1328.61 969.237 1140.06 1031.88 926.86 1073.37C713.658 1114.86 518.381 1126.91 375.361 1113.47C303.646 1106.72 246.804 1093.72 207.722 1075.95C167.598 1057.71 152.978 1037.8 150.779 1021.27C148.579 1004.74 157.296 980.29 190.663 947.747C223.164 916.05 273.763 882.139 340.109 848.529C472.422 781.502 660.968 718.862 874.17 677.371Z" stroke="#DEDBD3" stroke-width="60"/>
<path d="M1526.07 182C1207.16 -40.5013 204.725 181.5 30 524L63.7425 774.999C209.686 559.999 972.48 243 1576.92 430L1650.1 708.999" stroke="#DEDBD3" stroke-width="60" stroke-linecap="round" stroke-linejoin="round"/>
<line x1="30" y1="-30" x2="321.573" y2="-30" transform="matrix(-0.275176 -0.961394 0.922433 -0.386157 1605.74 338)" stroke="#DEDBD3" stroke-width="60" stroke-linecap="round"/>
</svg>
