<svg width="1710" height="1254" viewBox="0 0 1710 1254" fill="none" xmlns="http://www.w3.org/2000/svg">
<path d="M855.686 675.248C1070.5 633.444 1267.24 621.109 1411.33 634.361C1483.58 641.006 1540.85 653.937 1580.24 671.668C1620.7 689.889 1635.36 709.791 1637.54 726.219C1639.73 742.648 1630.98 767.104 1597.28 799.759C1564.48 831.537 1513.45 865.545 1446.57 899.265C1313.2 966.513 1123.19 1029.44 908.376 1071.24C693.565 1113.05 496.825 1125.38 352.737 1112.13C280.487 1105.49 223.209 1092.56 183.827 1074.82C143.357 1056.6 128.707 1036.7 126.521 1020.27C124.335 1003.84 133.084 979.388 166.783 946.733C199.578 914.956 250.61 880.947 317.49 847.227C450.867 779.979 640.875 717.051 855.686 675.248Z" stroke="#14181F" stroke-width="60"/>
<path d="M874.17 674.371C1087.37 632.881 1282.65 620.827 1425.67 634.273C1497.38 641.016 1554.22 654.018 1593.31 671.786C1633.43 690.026 1648.05 709.935 1650.25 726.467C1652.45 742.999 1643.73 767.449 1610.37 799.992C1577.87 831.689 1527.27 865.6 1460.92 899.21C1328.61 966.237 1140.06 1028.88 926.86 1070.37C713.658 1111.86 518.381 1123.91 375.361 1110.47C303.646 1103.72 246.804 1090.72 207.722 1072.95C167.598 1054.71 152.978 1034.8 150.779 1018.27C148.579 1001.74 157.296 977.29 190.663 944.747C223.164 913.05 273.763 879.139 340.109 845.529C472.422 778.502 660.968 715.862 874.17 674.371Z" stroke="#14181F" stroke-width="60"/>
<path d="M1526.07 179C1207.16 -43.5013 204.725 178.5 30 521L63.7425 771.999C209.686 556.999 972.48 240 1576.92 427L1650.1 705.999" stroke="#14181F" stroke-width="60" stroke-linecap="round" stroke-linejoin="round"/>
<line x1="30" y1="-30" x2="321.573" y2="-30" transform="matrix(-0.275176 -0.961394 0.922433 -0.386157 1602.74 338)" stroke="#14181F" stroke-width="60" stroke-linecap="round"/>
</svg>
