<svg width="2134" height="2134" viewBox="0 0 2134 2134" fill="none" xmlns="http://www.w3.org/2000/svg">
<circle cx="1067" cy="1067" r="1067" fill="#DEDBD3"/>
<path d="M1052.69 1118.25C1267.5 1076.44 1464.24 1064.11 1608.33 1077.36C1680.58 1084.01 1737.85 1096.94 1777.24 1114.67C1817.7 1132.89 1832.36 1152.79 1834.54 1169.22C1836.73 1185.65 1827.98 1210.1 1794.28 1242.76C1761.48 1274.54 1710.45 1308.55 1643.57 1342.27C1510.2 1409.51 1320.19 1472.44 1105.38 1514.24C890.565 1556.05 693.825 1568.38 549.737 1555.13C477.487 1548.49 420.209 1535.56 380.827 1517.82C340.357 1499.6 325.707 1479.7 323.521 1463.27C321.335 1446.84 330.084 1422.39 363.783 1389.73C396.578 1357.96 447.61 1323.95 514.49 1290.23C647.867 1222.98 837.875 1160.05 1052.69 1118.25Z" stroke="#14181F" stroke-width="60"/>
<path d="M1071.17 1117.37C1284.37 1075.88 1479.65 1063.83 1622.67 1077.27C1694.38 1084.02 1751.22 1097.02 1790.31 1114.79C1830.43 1133.03 1845.05 1152.94 1847.25 1169.47C1849.45 1186 1840.73 1210.45 1807.37 1242.99C1774.87 1274.69 1724.27 1308.6 1657.92 1342.21C1525.61 1409.24 1337.06 1471.88 1123.86 1513.37C910.658 1554.86 715.381 1566.91 572.361 1553.47C500.646 1546.72 443.804 1533.72 404.722 1515.95C364.598 1497.71 349.978 1477.8 347.779 1461.27C345.579 1444.74 354.296 1420.29 387.663 1387.75C420.164 1356.05 470.763 1322.14 537.109 1288.53C669.422 1221.5 857.968 1158.86 1071.17 1117.37Z" stroke="#14181F" stroke-width="60"/>
<path d="M1723.07 622C1404.16 399.499 401.725 621.501 227 964L260.742 1215C406.686 1000 1169.48 683 1773.92 870L1847.1 1149" stroke="#14181F" stroke-width="60" stroke-linecap="round" stroke-linejoin="round"/>
<line x1="30" y1="-30" x2="321.573" y2="-30" transform="matrix(-0.275176 -0.961394 0.922433 -0.386157 1799.74 781)" stroke="#14181F" stroke-width="60" stroke-linecap="round"/>
</svg>
