<svg width="2134" height="2134" viewBox="0 0 2134 2134" fill="none" xmlns="http://www.w3.org/2000/svg">
<circle cx="1067" cy="1067" r="1067" fill="#14181F"/>
<path d="M1069.69 1118.25C1284.5 1076.44 1481.24 1064.11 1625.33 1077.36C1697.58 1084.01 1754.85 1096.94 1794.24 1114.67C1834.7 1132.89 1849.36 1152.79 1851.54 1169.22C1853.73 1185.65 1844.98 1210.1 1811.28 1242.76C1778.48 1274.54 1727.45 1308.55 1660.57 1342.27C1527.2 1409.51 1337.19 1472.44 1122.38 1514.24C907.565 1556.05 710.825 1568.38 566.737 1555.13C494.487 1548.49 437.209 1535.56 397.827 1517.82C357.357 1499.6 342.707 1479.7 340.521 1463.27C338.335 1446.84 347.084 1422.39 380.783 1389.73C413.578 1357.96 464.61 1323.95 531.49 1290.23C664.867 1222.98 854.875 1160.05 1069.69 1118.25Z" stroke="#DEDBD3" stroke-width="60"/>
<path d="M1088.17 1117.37C1301.37 1075.88 1496.65 1063.83 1639.67 1077.27C1711.38 1084.02 1768.22 1097.02 1807.31 1114.79C1847.43 1133.03 1862.05 1152.94 1864.25 1169.47C1866.45 1186 1857.73 1210.45 1824.37 1242.99C1791.87 1274.69 1741.27 1308.6 1674.92 1342.21C1542.61 1409.24 1354.06 1471.88 1140.86 1513.37C927.658 1554.86 732.381 1566.91 589.361 1553.47C517.646 1546.72 460.804 1533.72 421.722 1515.95C381.598 1497.71 366.978 1477.8 364.779 1461.27C362.579 1444.74 371.296 1420.29 404.663 1387.75C437.164 1356.05 487.763 1322.14 554.109 1288.53C686.422 1221.5 874.968 1158.86 1088.17 1117.37Z" stroke="#DEDBD3" stroke-width="60"/>
<path d="M1740.07 622C1421.16 399.499 418.725 621.5 244 964L277.742 1215C423.686 999.999 1186.48 683 1790.92 870L1864.1 1149" stroke="#DEDBD3" stroke-width="60" stroke-linecap="round" stroke-linejoin="round"/>
<line x1="30" y1="-30" x2="321.573" y2="-30" transform="matrix(-0.275176 -0.961394 0.922433 -0.386157 1819.74 778)" stroke="#DEDBD3" stroke-width="60" stroke-linecap="round"/>
</svg>
